<svg width="17" height="17" viewBox="0 0 17 17" fill="none" xmlns="http://www.w3.org/2000/svg">
<path id="Vector" d="M14.5299 5.28678H11.3299V3.28678C11.3299 1.81412 9.89708 0.620117 8.12988 0.620117C6.36268 0.620117 4.92988 1.81412 4.92988 3.28678V5.28678H1.72988L0.129883 16.6201H16.1299L14.5299 5.28678ZM5.72988 3.28678C5.72988 2.18412 6.80668 1.28678 8.12988 1.28678C9.45308 1.28678 10.5299 2.18412 10.5299 3.28678V5.28678H5.72988V3.28678ZM1.92908 15.2868L3.15228 6.62012H4.92988V7.62012C4.92988 7.80412 5.10908 7.95345 5.32988 7.95345C5.55068 7.95345 5.72988 7.80412 5.72988 7.62012V6.62012H10.5299V7.62012C10.5299 7.80412 10.7091 7.95345 10.9299 7.95345C11.1507 7.95345 11.3299 7.80412 11.3299 7.62012V6.62012H13.1075L14.3307 15.2868H1.92908Z" fill="black"/>
</svg>
